<svg id="Capa_1" enable-background="new 0 0 512 512" height="512" viewBox="0 0 512 512" width="512" xmlns="http://www.w3.org/2000/svg"><g><path d="m404.834 74.179h-3.64v-15.517c0-12.406-10.093-22.5-22.5-22.5h-35.314v-19.39c.001-9.248-7.523-16.772-16.772-16.772h-15.428c-4.973 0-9.658 2.186-12.853 5.997l-25.289 30.165h-139.733c-12.407 0-22.5 10.094-22.5 22.5v15.517h-3.64c-12.413 0-22.511 10.099-22.511 22.511v28.396c0 12.412 10.098 22.51 22.511 22.51h5.192l3.905 70.525c-8.583 1.92-15.918 9.672-15.159 18.555l12.955 183.268c.531 7.516 6.38 13.731 14.268 16.043l3.089 55.791c.628 11.338 10.018 20.222 21.377 20.222h206.417c11.358 0 20.748-8.884 21.376-20.225l3.089-55.795c7.88-2.316 13.722-8.528 14.253-16.038l12.958-183.269c.759-8.88-6.57-16.628-15.149-18.552l.973-17.562c.229-4.136-2.938-7.675-7.074-7.903-4.119-.229-7.674 2.938-7.903 7.073l-.979 17.686h-249.506l-3.866-69.82h257.239l-.974 17.579c-.229 4.136 2.938 7.675 7.074 7.903 4.151.218 7.674-2.938 7.903-7.073l1.02-18.409h5.192c12.413 0 22.511-10.098 22.511-22.51v-28.396c-.001-12.412-10.099-22.51-22.512-22.51zm-95.012-58.545c.338-.404.833-.634 1.358-.634h15.428c.978 0 1.772.795 1.772 1.772v19.39h-35.769zm73.143 403.25c-.087 1.227-2.554 3.082-6.074 3.082h-49.55c-4.142 0-7.5 3.357-7.5 7.5s3.358 7.5 7.5 7.5h41.256l-2.989 53.979c-.188 3.396-2.999 6.055-6.399 6.055h-206.417c-3.4 0-6.211-2.659-6.399-6.055l-2.989-53.979h148.703c4.142 0 7.5-3.357 7.5-7.5s-3.358-7.5-7.5-7.5h-157.012c-3.521 0-5.988-1.854-6.074-3.082l-12.955-183.268c.632-2.213 2.834-2.991 6.075-3.201h267.708c3.241.21 5.441.988 6.075 3.2zm29.38-293.799c0 4.141-3.369 7.51-7.511 7.51h-297.668c-4.142 0-7.511-3.369-7.511-7.51v-28.396c0-4.142 3.369-7.511 7.511-7.511h62.75c4.142 0 7.5-3.357 7.5-7.5s-3.358-7.5-7.5-7.5h-44.11v-15.516c0-4.136 3.365-7.5 7.5-7.5h245.39c4.135 0 7.5 3.364 7.5 7.5v15.517h-180.472c-4.142 0-7.5 3.357-7.5 7.5s3.358 7.5 7.5 7.5h199.111c4.142 0 7.511 3.369 7.511 7.511v28.395z"/><path d="m298.894 273.585h-51.064c-4.142 0-7.5 3.357-7.5 7.5s3.358 7.5 7.5 7.5h51.064c15.011 0 27.224 12.213 27.224 27.224v25.532c0 15.011-12.212 27.223-27.224 27.223h-85.787c-15.011 0-27.224-12.212-27.224-27.223v-25.532c0-14.905 12.124-27.117 27.027-27.223 4.142-.029 7.476-3.411 7.447-7.553-.029-4.124-3.381-7.447-7.499-7.447-.018 0-.036 0-.054 0-23.115.164-41.92 19.104-41.92 42.223v25.532c0 23.281 18.941 42.223 42.224 42.223h85.787c23.282 0 42.224-18.941 42.224-42.223v-25.532c-.002-23.283-18.943-42.224-42.225-42.224z"/></g></svg>