<svg id="Capa_1" enable-background="new 0 0 512 512" height="512" viewBox="0 0 512 512" width="512" xmlns="http://www.w3.org/2000/svg"><g><path d="m255.846 256 153.546-181.98c16.027-18.995 13.621-47.385-5.374-63.412s-47.385-13.62-63.412 5.374l-158.606 187.978v-158.96c0-24.853-20.147-45-45-45s-45 20.147-45 45v422c0 24.853 20.147 45 45 45s45-20.147 45-45v-123.478l14.969-17.741 143.637 170.237c8.902 10.55 21.614 15.982 34.416 15.982 10.247 0 20.552-3.482 28.996-10.608 18.995-16.027 21.401-44.417 5.374-63.412z"/></g></svg>